<svg width="26" height="24" viewBox="0 0 26 24" fill="none" xmlns="http://www.w3.org/2000/svg">
<g id="search-svgrepo-com 1" clip-path="url(#clip0_709_13)">
<path id="Vector" d="M25.3804 23.2329L18.0864 16.2308C19.9468 14.5085 21.0994 12.1341 21.0994 9.51554C21.0994 4.2684 16.4753 0 10.7909 0C5.10652 0 0.482422 4.2684 0.482422 9.51554C0.482422 14.7627 5.10652 19.0311 10.7909 19.0311C13.2861 19.0311 15.576 18.2078 17.3609 16.8416L24.6725 23.8609C24.7688 23.9538 24.8974 24 25.0265 24C25.1492 24 25.2714 23.9579 25.3666 23.8736C25.562 23.7 25.5679 23.4132 25.3804 23.2329ZM10.7909 18.1248C5.64796 18.1248 1.46418 14.2629 1.46418 9.51554C1.46418 4.76819 5.64796 0.906242 10.7909 0.906242C15.9339 0.906242 20.1177 4.76819 20.1177 9.51554C20.1177 14.2629 15.9334 18.1248 10.7909 18.1248Z" fill="#777C82"/>
</g>
<defs>
<clipPath id="clip0_709_13">
<rect width="26" height="24" fill="white"/>
</clipPath>
</defs>
</svg>
