<svg width="20" height="20" viewBox="0 0 20 20" fill="none" xmlns="http://www.w3.org/2000/svg">
<g id="more-svgrepo-com 5">
<g id="XMLID_88_">
<path id="XMLID_89_" d="M2.38095 7.61905C1.0681 7.61905 0 8.68714 0 10C0 11.3129 1.0681 12.381 2.38095 12.381C3.69381 12.381 4.7619 11.3129 4.7619 10C4.7619 8.68714 3.69381 7.61905 2.38095 7.61905Z" fill="black"/>
<path id="XMLID_91_" d="M10.0001 7.61905C8.68724 7.61905 7.61914 8.68714 7.61914 10C7.61914 11.3129 8.68724 12.381 10.0001 12.381C11.313 12.381 12.381 11.3129 12.381 10C12.381 8.68714 11.313 7.61905 10.0001 7.61905Z" fill="black"/>
<path id="XMLID_93_" d="M17.619 7.61905C16.3061 7.61905 15.238 8.68714 15.238 10C15.238 11.3129 16.3061 12.381 17.619 12.381C18.9318 12.381 19.9999 11.3129 19.9999 10C19.9999 8.68714 18.9318 7.61905 17.619 7.61905Z" fill="black"/>
</g>
</g>
</svg>
